Coordinates
version=1
nRows=17
nColumns=36
inDegrees=yes

Units are S.I. units (second, meters, Newtons, ...)
If the header above contains a line with 'inDegrees', this indicates whether rotational values are in degrees (yes) or radians (no).

endheader
time	pelvis_tilt	pelvis_list	pelvis_rotation	pelvis_tx	pelvis_ty	pelvis_tz	hip_flexion_r	hip_adduction_r	hip_rotation_r	knee_angle_r	knee_angle_r_beta	ankle_angle_r	subtalar_angle_r	mtp_angle_r	hip_flexion_l	hip_adduction_l	hip_rotation_l	knee_angle_l	knee_angle_l_beta	ankle_angle_l	subtalar_angle_l	mtp_angle_l	lumbar_extension	lumbar_bending	lumbar_rotation	arm_flex_r	arm_add_r	arm_rot_r	elbow_flex_r	pro_sup_r	arm_flex_l	arm_add_l	arm_rot_l	elbow_flex_l	pro_sup_l
      1.34000000	    -21.12291440	     -3.96505039	      8.93870221	      0.16962889	      0.78221055	     -0.08038577	     61.68073302	     -8.58466002	      3.50361903	     64.11311226	      1.11898490	     12.11169628	    -30.30207595	     -7.49999987	     63.83487649	     -4.99155749	      6.36722647	     61.12919033	      1.06690564	     12.86650054	    -20.02231391	     -7.49999987	    -15.97055371	      2.16825422	      0.21676257	    106.53984214	     -4.63631646	     35.32971726	    101.82419723	     81.33338738	    101.55094709	    -19.00787300	     32.17419635	    107.43908984	     74.03137069
      1.34166670	    -20.96574916	     -4.01738779	      8.96204986	      0.17061010	      0.79211657	     -0.08097123	     60.34240785	     -8.57328285	      2.98162244	     62.51313594	      1.09106005	     11.85300567	    -29.61612500	     -7.49999987	     62.69987322	     -5.20429126	      5.69949667	     59.62543383	      1.04066014	     12.31634145	    -20.20962621	     -7.49999987	    -15.30035760	      2.08674139	     -0.12599234	    105.95227363	     -5.34490760	     36.25787829	    101.76341624	     81.57529379	    100.69539176	    -19.41711644	     32.63963863	    107.82369834	     74.25150861
      1.34333330	    -20.61617787	     -4.03375897	      8.94141408	      0.17120465	      0.80177267	     -0.08094605	     58.89364099	     -8.69034068	      2.54097516	     60.88086154	      1.06257149	     10.69928312	    -29.28675689	     -7.49999987	     61.21302153	     -5.33802840	      5.30745025	     57.79241533	      1.00866793	     10.99700769	    -20.84885157	     -7.49999987	    -15.13889710	      2.05543604	     -0.15287116	    106.00610323	     -5.81589000	     37.92239692	    101.38067859	     81.96820548	    100.20169022	    -19.33772728	     32.76858423	    108.52487648	     74.61474217
      1.34500000	    -20.28470917	     -3.96521913	      8.84463908	      0.17232851	      0.80789157	     -0.08115955	     57.75320876	     -8.82638167	      2.11525091	     59.38391218	      1.03644479	      8.90813018	    -29.69811889	     -7.49999987	     59.98282801	     -5.42764404	      5.10435173	     56.17993270	      0.98052480	      9.66931001	    -21.47245846	     -7.49999987	    -15.11222102	      2.12070629	     -0.15330672	    105.87325138	     -6.17234604	     39.58483905	    101.22718937	     81.75023698	     99.90195166	    -18.89868606	     32.81138394	    108.78191744	     74.71283467
      1.34666670	    -19.85796910	     -3.90622296	      8.41673027	      0.17711652	      0.81460511	     -0.08562496	     56.38700835	     -8.95159123	      1.47976467	     57.87396074	      1.01009117	      8.05690548	    -29.21554703	     -7.49999987	     58.57215602	     -5.68495597	      4.69255889	     54.88676975	      0.95795485	      8.84734012	    -21.90838520	     -7.49999987	    -14.71774476	      2.22483178	      0.22819186	    104.34928981	     -6.93466123	     40.10332459	    101.71065591	     81.91468020	     98.36669287	    -19.46585321	     33.42146042	    109.37640956	     74.96788652
      1.34833330	    -19.66332908	     -3.89580438	      7.85254568	      0.18582000	      0.81551796	     -0.08598729	     55.25972899	     -9.05701893	      0.72018004	     56.79166847	      0.99120160	      7.24318123	    -29.02296380	     -7.49999987	     57.64659635	     -6.11405800	      4.32008086	     54.36808116	      0.94890202	      7.69402721	    -22.77952426	     -7.49999987	    -13.57984841	      2.21837908	      1.13460915	    102.94517660	     -7.60464307	     40.66390272	    102.98741048	     82.11374933	     96.55794698	    -19.32886426	     34.17796333	    111.64535547	     75.35903228
      1.35000000	    -19.90629520	     -3.64916706	      7.26825141	      0.18583497	      0.82522936	     -0.08541089	     54.42428171	     -9.29376968	      0.18945167	     54.93991648	      0.95888243	      6.41045648	    -28.18699612	     -7.49999987	     57.05820475	     -6.26127943	      3.69370442	     53.47110410	      0.93324682	      6.22717293	    -23.95165745	     -7.49999987	    -12.20864106	      1.94827008	      2.20257511	    102.41196764	     -8.37382050	     42.63848617	    103.66448079	     81.98105813	     94.65453773	    -17.74938029	     34.15539833	    112.70588891	     76.26317754
      1.35166670	    -19.48336563	     -3.27767044	      6.88699553	      0.19053421	      0.83551763	     -0.09014652	     52.65610898	     -9.71292778	     -0.30877264	     52.95939038	      0.92431573	      5.66454305	    -26.98911151	     -7.49999987	     55.31850589	     -6.34519929	      2.77436632	     51.88585116	      0.90557894	      5.03226169	    -24.03011202	     -7.49999987	    -11.04817939	      1.73107831	      2.84714913	     99.95714865	    -10.18966381	     43.78508689	    104.74395124	     82.43849415	     91.94013747	    -16.65947139	     34.14723267	    112.51637048	     77.30272739
      1.35333330	    -19.03218451	     -3.04135772	      6.53449705	      0.19933682	      0.84892357	     -0.09057586	     50.36843867	    -10.04420688	     -0.92840136	     50.20925403	      0.87631680	      4.34016576	    -25.34884220	     -7.49999987	     52.97078141	     -6.53959688	      1.94823533	     49.59693011	      0.86562973	      3.36525095	    -23.85000230	     -7.49999987	    -10.07641906	      1.58189673	      3.35088338	     97.42590759	    -11.11385733	     44.47603141	    106.92479072	     83.86931770	     89.00679033	    -15.11703204	     33.59848901	    112.89735991	     81.26458662
      1.35500000	    -18.35623924	     -2.98490471	      6.24842767	      0.20795996	      0.85869956	     -0.09071205	     47.81304291	    -10.32378012	     -1.91832480	     47.93930775	      0.83669876	      3.09745944	    -24.39065138	     -7.49999987	     50.44977456	     -6.93208736	      1.26488385	     47.35215106	      0.82645094	      2.02052540	    -23.11107280	     -7.49999987	     -9.22049116	      1.76478227	      3.49954841	     94.82299658	    -11.34717070	     45.61352868	    107.49869536	     83.91287420	     86.54934474	    -15.40201573	     34.28677127	    113.17046626	     81.30323939
      1.35666670	    -17.90560224	     -2.88464025	      5.85341733	      0.21172287	      0.86526565	     -0.09508248	     45.93987350	    -10.67202144	     -2.89785923	     45.97279220	      0.80237659	      1.46678794	    -24.19949302	     -7.49999987	     48.28567371	     -6.83447213	      1.00649085	     45.43352301	      0.79296457	      0.55459916	    -23.30856130	     -7.49999987	     -8.15661851	      2.13973439	      3.56739395	     91.87481367	    -12.25879133	     46.82146131	    108.91732530	     83.95427961	     82.95860967	    -15.89317884	     33.98978107	    113.97196062	     81.40258346
      1.35833330	    -17.51960033	     -3.04463403	      5.31615467	      0.21598296	      0.87215860	     -0.09044846	     44.64114863	    -10.43109954	     -3.54247249	     44.66767120	      0.77959793	      0.54351218	    -23.03048310	     -7.49999987	     46.66683984	     -7.43170121	      0.98281669	     43.80623371	      0.76456301	     -0.80649389	    -22.87955400	     -7.49999987	     -7.47938517	      2.53025760	      4.06761920	     90.89027703	    -11.85178298	     47.55854150	    108.49491399	     83.82585236	     80.26677433	    -16.89298421	     33.05402637	    115.48559842	     81.54615575
      1.36000000	    -17.05908442	     -3.12329750	      5.43323204	      0.22359380	      0.87940435	     -0.09111651	     42.85992822	    -10.32512074	     -3.92571501	     43.04656969	      0.75130437	     -0.72229593	    -21.95979468	     -7.49999987	     44.88281999	     -7.75029798	      0.74747644	     42.00785661	      0.73317541	     -2.12856852	    -21.95919271	     -7.49999987	     -6.49204621	      2.77752801	      3.70365585	     89.01235636	    -12.31797530	     48.66222886	    108.58512047	     83.84325869	     78.27617555	    -17.56658379	     34.00064072	    115.63306486	     81.60177606
      1.36166670	    -16.51011523	     -3.40373368	      5.97085693	      0.22754131	      0.89516757	     -0.08707360	     40.43535549	    -10.01153092	     -5.10194822	     40.28296293	      0.70307034	     -2.72229477	    -20.81587728	     -7.49999987	     42.62561314	     -8.06923790	      0.80127933	     39.16334085	      0.68352924	     -4.25292659	    -20.92155471	     -7.49999987	     -5.88399209	      2.97358979	      2.98018712	     86.89566195	    -12.40103357	     49.37648056	    107.97887852	     83.26823904	     75.65256019	    -18.65756236	     33.74270152	    116.64952026	     81.26747608
      1.36333330	    -15.66825781	     -3.78848475	      6.59621077	      0.23122446	      0.90841076	     -0.08479193	     37.70521959	     -9.53559166	     -6.07306178	     37.51250217	      0.65471667	     -5.56158374	    -20.20600462	     -7.49999987	     39.89464794	     -8.66959087	      0.57562931	     35.66124828	      0.62240620	     -6.33648849	    -19.05524658	     -7.49999987	     -5.85593484	      3.62106179	      1.44097667	     84.51347480	    -11.10219121	     50.09365976	    107.71317321	     82.91805577	     72.48410860	    -20.91982051	     33.20268451	    117.56756124	     81.08402829
      1.36500000	    -15.23327404	     -4.10636611	      7.27539924	      0.23067484	      0.91434804	     -0.08583189	     35.88429648	     -9.18159656	     -6.71198924	     35.01960934	      0.61120749	     -8.66904596	    -20.38130629	     -7.49999987	     37.94288731	     -9.04703734	      0.13548695	     32.44172552	      0.56621493	     -8.34604684	    -17.24430622	     -7.49999987	     -5.65167451	      3.77857961	      0.26641034	     82.83811497	    -11.39558705	     50.35437217	    108.40470458	     83.34941290	     71.37782058	    -21.94506898	     33.57480443	    116.83189519	     81.49843017
      1.36666670	    -14.74379929	     -4.38155174	      7.79377414	      0.23000106	      0.92355920	     -0.08721159	     34.07921609	     -8.72655249	     -6.88284290	     32.27118996	      0.56323852	    -11.86704790	    -20.81806177	     -7.49999987	     36.30244406	     -9.43103767	     -0.67041214	     29.73208287	      0.51892274	     -9.84957973	    -15.20145037	     -7.49999987	     -5.45270769	      3.81094579	     -0.51904795	     81.29879403	    -11.16406440	     49.81913242	    107.80324061	     83.28063518	     71.08159481	    -22.32828502	     34.30927074	    115.15756116	     81.34524950
